<svg width="80" height="80" viewBox="0 0 80 84" fill="none" xmlns="http://www.w3.org/2000/svg">
<path d="M12.672 80.5421H0.88V79.8821H1.628C2.068 79.8821 2.354 79.8015 2.486 79.6401C2.618 79.4788 2.684 79.2368 2.684 78.9141V66.7701C2.684 66.4475 2.618 66.2055 2.486 66.0441C2.354 65.8828 2.068 65.8021 1.628 65.8021H0.88V65.1421H6.468V65.8021H5.632C5.192 65.8021 4.906 65.8828 4.774 66.0441C4.642 66.2055 4.576 66.4475 4.576 66.7701V78.6061C4.576 78.9288 4.642 79.1781 4.774 79.3541C4.906 79.5301 5.192 79.6181 5.632 79.6181H9.812C10.5893 79.6181 11.2713 79.3688 11.858 78.8701C12.4593 78.3568 12.76 77.8581 12.76 77.3741L13.42 77.5061L12.672 80.5421ZM24.2005 80.5421H21.0325V78.7821C20.2992 79.5741 19.6905 80.1168 19.2065 80.4101C18.7225 80.7035 18.0625 80.8501 17.2265 80.8501C16.4052 80.8501 15.7598 80.6595 15.2905 80.2781C14.8358 79.8821 14.6085 79.3321 14.6085 78.6281C14.6085 77.9241 14.9092 77.2421 15.5105 76.5821C16.1265 75.9075 16.8378 75.4015 17.6445 75.0641C18.4658 74.7121 19.1845 74.4481 19.8005 74.2721C20.4165 74.0815 20.8272 73.9861 21.0325 73.9861V73.5021C21.0325 72.1235 20.4605 71.4341 19.3165 71.4341C18.5245 71.4341 17.7838 71.6028 17.0945 71.9401C16.4198 72.2775 15.9138 72.7101 15.5765 73.2381L15.1365 72.8421C16.1192 70.9355 17.8205 69.9821 20.2405 69.9821C20.8565 69.9821 21.3625 70.1508 21.7585 70.4881C22.1692 70.8108 22.4405 71.1921 22.5725 71.6321C22.7192 72.0721 22.7925 72.5635 22.7925 73.1061V79.0461C22.7925 79.2368 22.8072 79.3835 22.8365 79.4861C22.8658 79.5888 22.9538 79.6915 23.1005 79.7941C23.2618 79.8821 23.4965 79.9261 23.8045 79.9261H24.2005V80.5421ZM21.0325 77.5501V74.8661C19.8885 75.0861 18.8252 75.5261 17.8425 76.1861C16.8598 76.8461 16.3685 77.5648 16.3685 78.3421C16.3685 78.6501 16.5152 78.9215 16.8085 79.1561C17.1165 79.3761 17.4905 79.4861 17.9305 79.4861C18.3852 79.4861 18.9205 79.2881 19.5365 78.8921C20.1525 78.4815 20.6512 78.0341 21.0325 77.5501ZM35.5914 72.7541L36.6474 72.7981C37.7474 72.7981 38.7594 72.6221 39.6834 72.2701C40.226 72.0648 40.6587 71.7421 40.9814 71.3021C41.3187 70.8621 41.4874 70.3195 41.4874 69.6741C41.4874 67.3568 40.094 66.1981 37.3074 66.1981L35.0194 66.2861V78.9581C35.0194 79.1635 35.034 79.3248 35.0634 79.4421C35.0927 79.5595 35.188 79.6695 35.3494 79.7721C35.5107 79.8748 35.7527 79.9261 36.0754 79.9261H36.9114V80.5421H31.3234V79.9261H32.0274C32.35 79.9261 32.592 79.8748 32.7534 79.7721C32.9147 79.6695 33.01 79.5595 33.0394 79.4421C33.0687 79.3248 33.0834 79.1635 33.0834 78.9581V66.7701C33.0834 66.4328 33.01 66.1908 32.8634 66.0441C32.7314 65.8828 32.4527 65.8021 32.0274 65.8021H31.3234V65.1421H34.7114L38.8914 64.9221C40.2114 64.9221 41.2747 65.2081 42.0814 65.7801C42.888 66.3521 43.2914 67.1588 43.2914 68.2001C43.2914 69.2268 43.0494 70.1288 42.5654 70.9061C42.096 71.6688 41.5094 72.2408 40.8054 72.6221C39.4707 73.3261 38.2754 73.6781 37.2194 73.6781C36.6034 73.6781 36.1194 73.6635 35.7674 73.6341L35.5914 72.7541ZM51.7822 77.8581L52.1782 78.2541C51.2395 79.9848 49.5528 80.8501 47.1182 80.8501C45.9888 80.8501 45.0208 80.3515 44.2142 79.3541C43.4222 78.3568 43.0262 77.2421 43.0262 76.0101C43.0262 74.3528 43.5615 72.9375 44.6322 71.7641C45.7175 70.5761 47.0302 69.9821 48.5702 69.9821C49.3035 69.9821 49.9488 70.1948 50.5062 70.6201C51.5035 71.3975 52.0022 72.4021 52.0022 73.6341C52.0022 73.8101 51.9655 74.0228 51.8922 74.2721C51.8335 74.5215 51.7822 74.6461 51.7382 74.6461L44.6542 74.8661C44.6542 76.0101 45.0135 77.0661 45.7322 78.0341C46.4508 79.0021 47.3235 79.4861 48.3502 79.4861C49.0835 79.4861 49.7582 79.3395 50.3742 79.0461C51.0048 78.7381 51.4742 78.3421 51.7822 77.8581ZM44.8742 73.9861L50.0222 73.7661C50.0515 73.7661 50.0662 73.6341 50.0662 73.3701C50.0662 72.6075 49.8388 72.0648 49.3842 71.7421C48.9442 71.4195 48.3282 71.2581 47.5362 71.2581C46.7588 71.2581 46.1208 71.5001 45.6222 71.9841C45.1235 72.4681 44.8742 73.1355 44.8742 73.9861ZM58.636 80.5421H53.884V79.9261H54.236C54.632 79.9261 54.8813 79.8601 54.984 79.7281C55.1013 79.5961 55.16 79.3835 55.16 79.0901V72.4901C55.16 72.2115 55.0647 72.0135 54.874 71.8961C54.698 71.7641 54.368 71.6981 53.884 71.6981V71.0821C54.1773 71.0821 54.6173 70.9795 55.204 70.7741C55.8053 70.5541 56.26 70.3488 56.568 70.1581L56.964 70.0701V72.7981C57.492 71.6395 58.0933 70.8768 58.768 70.5101C59.4427 70.1288 60.44 69.9381 61.76 69.9381L61.628 72.4901H60.968C60.968 72.2848 60.8873 72.0868 60.726 71.8961C60.5793 71.7055 60.3373 71.6101 60 71.6101C59.2667 71.6101 58.5773 72.0061 57.932 72.7981C57.2867 73.5901 56.964 74.3528 56.964 75.0861V78.9581C56.964 79.1928 56.9713 79.3615 56.986 79.4641C57.0153 79.5668 57.1033 79.6695 57.25 79.7721C57.3967 79.8748 57.624 79.9261 57.932 79.9261H58.636V80.5421ZM67.0036 80.5421H62.6036V79.9261H62.9116C63.2342 79.9261 63.4689 79.8601 63.6156 79.7281C63.7622 79.5815 63.8356 79.3395 63.8356 79.0021V66.0221C63.8356 65.7435 63.7402 65.5455 63.5496 65.4281C63.3589 65.2961 63.0289 65.2301 62.5596 65.2301V64.6141C62.8529 64.6141 63.3002 64.5335 63.9016 64.3721C64.5176 64.2108 64.9649 64.0421 65.2436 63.8661L65.6396 63.7781V78.9581C65.6396 79.1928 65.6469 79.3615 65.6616 79.4641C65.6909 79.5668 65.7789 79.6695 65.9256 79.7721C66.0722 79.8748 66.2996 79.9261 66.6076 79.9261H67.0036V80.5421ZM78.3626 80.5421H75.1946V78.7821C74.4613 79.5741 73.8526 80.1168 73.3686 80.4101C72.8846 80.7035 72.2246 80.8501 71.3886 80.8501C70.5673 80.8501 69.922 80.6595 69.4526 80.2781C68.998 79.8821 68.7706 79.3321 68.7706 78.6281C68.7706 77.9241 69.0713 77.2421 69.6726 76.5821C70.2886 75.9075 71 75.4015 71.8066 75.0641C72.628 74.7121 73.3466 74.4481 73.9626 74.2721C74.5786 74.0815 74.9893 73.9861 75.1946 73.9861V73.5021C75.1946 72.1235 74.6226 71.4341 73.4786 71.4341C72.6866 71.4341 71.946 71.6028 71.2566 71.9401C70.582 72.2775 70.076 72.7101 69.7386 73.2381L69.2986 72.8421C70.2813 70.9355 71.9826 69.9821 74.4026 69.9821C75.0186 69.9821 75.5246 70.1508 75.9206 70.4881C76.3313 70.8108 76.6026 71.1921 76.7346 71.6321C76.8813 72.0721 76.9546 72.5635 76.9546 73.1061V79.0461C76.9546 79.2368 76.9693 79.3835 76.9986 79.4861C77.028 79.5888 77.116 79.6915 77.2626 79.7941C77.424 79.8821 77.6586 79.9261 77.9666 79.9261H78.3626V80.5421ZM75.1946 77.5501V74.8661C74.0506 75.0861 72.9873 75.5261 72.0046 76.1861C71.022 76.8461 70.5306 77.5648 70.5306 78.3421C70.5306 78.6501 70.6773 78.9215 70.9706 79.1561C71.2786 79.3761 71.6526 79.4861 72.0926 79.4861C72.5473 79.4861 73.0826 79.2881 73.6986 78.8921C74.3146 78.4815 74.8133 78.0341 75.1946 77.5501Z" fill="#006989"/>
<path d="M0 82.7421H79.1106V83.8421H0V82.7421Z" fill="#006989"/>
<path d="M63.077 39.4301L47.9598 36.272C47.926 36.2684 47.8919 36.2684 47.8581 36.272C47.8581 36.2634 47.8581 36.2548 47.8581 36.2458C47.944 36.2428 48.0274 36.217 48.0991 36.1712L63.1698 26.4036C63.1943 26.3874 63.2173 26.3691 63.2383 26.3489C63.7965 25.8133 64.2238 25.1644 64.4889 24.4494C64.7541 23.7345 64.8505 22.9716 64.7711 22.2163C64.6056 20.5521 64.2552 18.9098 63.7258 17.3178C62.6256 13.9729 60.7811 10.8998 58.3211 8.31324L58.3178 8.31008C58.3809 8.37468 58.4228 8.45573 58.4384 8.54315C58.454 8.63056 58.4425 8.72046 58.4055 8.80165L47.1836 33.3605C47.0229 33.0094 46.8349 32.6705 46.6211 32.3467L57.5462 8.43839C57.5774 8.37026 57.6256 8.31061 57.6865 8.26475C57.7474 8.2189 57.819 8.18826 57.8952 8.17556C57.9713 8.16286 58.0495 8.1685 58.1228 8.19197C58.1962 8.21543 58.2623 8.25601 58.3155 8.31008C57.8045 7.77559 57.295 7.28583 56.7592 6.8146C52.4055 2.97461 46.7736 0.757134 40.8756 0.560683H40.8583C40.9817 0.561991 41.0996 0.610169 41.1864 0.694758C41.2732 0.779347 41.3219 0.893519 41.3219 1.01249V28.9342C41.0117 28.8832 40.6986 28.8502 40.3844 28.8352V1.01113C40.3844 0.892009 40.4332 0.777702 40.5202 0.693088C40.6072 0.608473 40.7253 0.560399 40.8489 0.559327C40.555 0.546225 40.2559 0.541255 39.962 0.541255C33.6704 0.528108 27.6092 2.82207 23.0078 6.95782L22.9956 6.96957C23.049 6.91682 23.115 6.87761 23.1879 6.85544C23.2608 6.83328 23.3382 6.82884 23.4133 6.84253C23.4884 6.85622 23.5588 6.88761 23.6183 6.9339C23.6777 6.98018 23.7244 7.03994 23.754 7.10782L34.5105 30.9284C34.2634 31.1572 34.032 31.4011 33.8176 31.6586L22.8958 7.46701C22.86 7.38695 22.849 7.29862 22.8642 7.21269C22.8793 7.12675 22.9199 7.04686 22.9811 6.98267C20.4252 9.27733 18.3953 12.0618 17.0219 15.1572C16.0262 17.4042 15.3938 19.785 15.1469 22.2167C15.0675 22.972 15.164 23.7348 15.4291 24.4497C15.6943 25.1645 16.1215 25.8133 16.6797 26.3489C16.7009 26.3691 16.724 26.3874 16.7486 26.4036L31.8236 36.1762C31.8955 36.2218 31.979 36.2474 32.065 36.2503V36.2729C32.0312 36.2693 31.9971 36.2693 31.9633 36.2729L16.7969 39.4428C15.2847 39.914 15.0156 40.5601 15.0587 41.0187C15.0629 41.064 15.0741 41.1085 15.092 41.1506C15.2275 41.4691 15.3892 41.8075 15.5865 42.1839C15.5898 42.1915 15.595 42.1983 15.5987 42.206C15.6025 42.2137 15.5987 42.2146 15.6025 42.2182C17.8025 46.5327 21.1981 50.1762 25.4136 52.7456C29.6291 55.315 34.5001 56.71 39.4872 56.7762C44.4744 56.8424 49.3833 55.5772 53.6706 53.1206C57.9579 50.664 61.4564 47.112 63.7787 42.8575C64.254 42.3974 64.6115 41.8367 64.8226 41.2202V41.2174C64.9305 40.8759 64.9769 40.0188 63.077 39.4301ZM49.6469 34.1141L62.9059 17.18C62.9808 17.0841 63.0922 17.0208 63.2155 17.0041C63.3388 16.9874 63.4639 17.0185 63.5634 17.0907C63.6628 17.1629 63.7284 17.2702 63.7458 17.3891C63.7632 17.5079 63.7308 17.6285 63.6559 17.7244L50.395 34.6586C50.3201 34.7544 50.2087 34.8177 50.0855 34.8344C49.9622 34.8512 49.837 34.82 49.7376 34.7478C49.6381 34.6756 49.5725 34.5683 49.5551 34.4495C49.5378 34.3306 49.5701 34.21 49.645 34.1141H49.6469ZM49.5011 2.95391C49.5121 2.8946 49.5353 2.83802 49.5694 2.7875C49.6034 2.73697 49.6476 2.69352 49.6993 2.6597C49.7511 2.62588 49.8093 2.60238 49.8706 2.59057C49.9319 2.57876 49.995 2.57888 50.0563 2.59093C50.1175 2.60299 50.1756 2.62672 50.2272 2.66075C50.2788 2.69478 50.3228 2.7384 50.3566 2.78906C50.3905 2.83972 50.4134 2.89639 50.4242 2.95574C50.435 3.01508 50.4333 3.07591 50.4194 3.13463L44.6673 30.323C44.3979 30.1307 44.1161 29.955 43.8236 29.7971L49.5011 2.95391ZM40.9422 35.6928C40.9422 36.244 40.3562 36.6732 39.6109 36.6732C38.8656 36.6732 38.275 36.244 38.275 35.6928C38.275 35.1415 38.8609 34.7169 39.6109 34.7169C40.3609 34.7169 40.9422 35.1461 40.9422 35.6928ZM37.9562 34.7349C36.5687 34.7349 35.4812 33.9623 35.4812 32.9684C35.4812 31.9744 36.5687 31.2018 37.9562 31.2018C39.3437 31.2018 40.4312 31.9789 40.4312 32.9684C40.4312 33.9578 39.3437 34.7349 37.9562 34.7349ZM35.3359 34.7169C36.1844 34.7169 36.85 35.1958 36.85 35.8012C36.85 36.4066 36.1844 36.8855 35.3359 36.8855C34.4875 36.8855 33.8219 36.4111 33.8219 35.8012C33.8219 35.1912 34.4875 34.7169 35.3359 34.7169ZM31.4542 1.98116C31.5145 1.96921 31.5766 1.96882 31.6371 1.98001C31.6976 1.9912 31.7551 2.01377 31.8065 2.04641C31.8579 2.07905 31.9022 2.12113 31.9367 2.17024C31.9712 2.21936 31.9954 2.27455 32.0078 2.33267L37.7294 29.1248C37.4261 29.2128 37.1287 29.3184 36.8387 29.4411L31.0895 2.5143C31.0646 2.39699 31.089 2.27495 31.1574 2.17499C31.2258 2.07503 31.3325 2.00531 31.4542 1.98116ZM17.0744 15.6027C17.0368 15.5549 17.0094 15.5004 16.9939 15.4423C16.9784 15.3843 16.975 15.3238 16.9839 15.2645C16.9929 15.2051 17.0141 15.1481 17.0461 15.0967C17.0782 15.0453 17.1205 15.0006 17.1707 14.9652C17.2209 14.9297 17.2779 14.9043 17.3384 14.8903C17.3989 14.8763 17.4617 14.874 17.5231 14.8837C17.5845 14.8933 17.6433 14.9146 17.6961 14.9464C17.7488 14.9781 17.7945 15.0197 17.8305 15.0687L32.4016 34.2339C32.2815 34.6211 32.1939 35.0169 32.1395 35.4176L17.0744 15.6027ZM56.4962 45.9714C52.1603 47.1958 46.3994 47.9503 40.0853 47.9593H39.9634C37.0383 47.9653 34.1156 47.7978 31.2119 47.4578C25.2165 46.7485 20.3556 45.3298 17.679 43.5316C17.4681 43.3915 17.2665 43.2425 17.0837 43.0979C22.0474 41.1343 27.2553 39.8023 32.5759 39.1355C32.6303 39.2733 32.6922 39.4066 32.754 39.5421C33.3798 40.8947 34.4015 42.0418 35.6937 42.8428C36.986 43.6438 38.4927 44.064 40.029 44.0518C41.5654 44.0396 43.0647 43.5955 44.3431 42.7739C45.6214 41.9524 46.6233 40.7892 47.2258 39.4269C47.2858 39.2914 47.3458 39.1559 47.3978 39.0203C52.6689 39.6254 57.7985 41.0729 62.5759 43.3034C61.1875 44.3223 59.0969 45.2304 56.4953 45.9714H56.4962Z" fill="#006989"/>
</svg>
