<svg width="200" height="248" viewBox="0 0 200 248" fill="none" xmlns="http://www.w3.org/2000/svg">
<g clip-path="url(#clip0_69_2)">
<path d="M136.245 43.8V34C136.245 24.1333 132.824 16 125.983 9.6C119.141 3.2 110.48 0 100 0C88.6463 0 79.7671 3.26667 73.3624 9.8C66.9578 16.3333 63.7555 25.0667 63.7555 36V39C63.7555 39.5333 63.8282 40 63.9738 40.4L64.1921 43.8C53.4207 36.7333 43.7409 33.2 35.1528 33.2C28.4571 33.2 22.0524 35.2667 15.9389 39.4C10.1164 43.2667 5.82242 48.3333 3.05677 54.6C1.01892 59 0 63.4 0 67.8C0 81.2667 8.4425 91.5333 25.3275 98.6L28.6026 100C9.53421 108 0 118.8 0 132.4C0 141.6 3.49345 149.667 10.4803 156.6C17.4672 163.533 25.7642 167 35.3712 167C44.1048 167 52.7656 164.133 61.3537 158.4L64.1921 156.4C63.901 159.067 63.7555 162.267 63.7555 166C63.7555 176 67.1761 184.167 74.0175 190.5C80.8588 196.833 89.5196 200 100 200C111.499 200 120.415 196.7 126.747 190.1C133.079 183.5 136.245 174.867 136.245 164.2V156.4C147.016 163.467 156.623 167 165.065 167C174.527 167 182.715 163.5 189.629 156.5C196.543 149.5 200 141.467 200 132.4C200 118.8 191.557 108.467 174.672 101.4L171.397 100C190.466 92 200 81.2667 200 67.8C200 59.1333 196.579 51.2 189.738 44C182.897 36.8 174.636 33.2 164.956 33.2C155.277 33.2 146.725 36 139.301 41.6L136.245 43.8ZM117.904 77.6C134.789 55.0667 150.437 43.8 164.847 43.8C170.815 43.8 176.237 46.2667 181.114 51.2C185.99 56.1333 188.428 61.6667 188.428 67.8C188.428 84.3333 168.923 94.1333 129.913 97.2V103C149.272 104.467 163.865 107.667 173.69 112.6C183.515 117.533 188.428 124.133 188.428 132.4C188.428 138.4 186.063 143.9 181.332 148.9C176.601 153.9 171.106 156.4 164.847 156.4C150.146 156.4 134.498 145.067 117.904 122.4L112.227 125.4C120.524 140.867 124.672 153.933 124.672 164.6C124.672 181.133 116.448 189.4 100 189.4C92.1397 189.4 86.0262 187.2 81.6594 182.8C77.4381 178.133 75.3275 172.267 75.3275 165.2C75.3275 154.533 79.476 141.267 87.7729 125.4L82.0961 122.4C65.5022 145.067 49.8544 156.4 35.1528 156.4C29.1849 156.4 23.7627 154.033 18.8865 149.3C14.0102 144.567 11.5721 138.933 11.5721 132.4C11.5721 115.867 31.0044 106.067 69.869 103V97.2C31.0044 94.2667 11.5721 84.4667 11.5721 67.8C11.5721 61.9333 13.901 56.4667 18.559 51.4C23.2169 46.3333 28.7482 43.8 35.1528 43.8C49.5633 43.8 65.2111 55.0667 82.0961 77.6L87.7729 74.8C79.476 59.2 75.3275 45.8667 75.3275 34.8C75.3275 27.7333 77.4381 21.8667 81.6594 17.2C86.0262 12.8 92.1397 10.6 100 10.6C116.448 10.6 124.672 18.8 124.672 35.2C124.672 46 120.524 59.2 112.227 74.8L117.904 77.6Z" fill="#D3072B"/>
</g>
<path d="M56.7875 219.4H50.1275L48.7875 223H47.8075L52.9675 209.28H53.9675L59.1075 223H58.1275L56.7875 219.4ZM56.5075 218.64L53.4675 210.46L50.4075 218.64H56.5075ZM75.5666 212.14L72.1466 223H71.2866L67.8266 213.38L64.3466 223H63.4866L60.0666 212.14H61.0066L63.9266 221.98L67.4066 212.14H68.2666L71.7266 221.94L74.6466 212.14H75.5666ZM76.9784 217.56C76.9784 216.44 77.1984 215.46 77.6384 214.62C78.0918 213.78 78.7118 213.133 79.4984 212.68C80.2984 212.227 81.2051 212 82.2184 212C83.3651 212 84.3384 212.28 85.1384 212.84C85.9384 213.4 86.4984 214.113 86.8184 214.98V212.14H87.7184V223H86.8184V220.14C86.4984 221.02 85.9318 221.747 85.1184 222.32C84.3184 222.88 83.3518 223.16 82.2184 223.16C81.2051 223.16 80.2984 222.933 79.4984 222.48C78.7118 222.013 78.0918 221.36 77.6384 220.52C77.1984 219.667 76.9784 218.68 76.9784 217.56ZM86.8184 217.56C86.8184 216.613 86.6184 215.78 86.2184 215.06C85.8318 214.327 85.2984 213.767 84.6184 213.38C83.9384 212.98 83.1784 212.78 82.3384 212.78C81.4584 212.78 80.6851 212.973 80.0184 213.36C79.3518 213.733 78.8318 214.28 78.4584 215C78.0851 215.72 77.8984 216.573 77.8984 217.56C77.8984 218.547 78.0851 219.4 78.4584 220.12C78.8318 220.84 79.3518 221.393 80.0184 221.78C80.6984 222.167 81.4718 222.36 82.3384 222.36C83.1784 222.36 83.9384 222.167 84.6184 221.78C85.3118 221.38 85.8518 220.82 86.2384 220.1C86.6251 219.367 86.8184 218.52 86.8184 217.56ZM91.8955 214.38C92.1621 213.58 92.6355 212.973 93.3155 212.56C93.9955 212.133 94.8621 211.92 95.9155 211.92V212.86H95.6155C94.5488 212.86 93.6621 213.167 92.9555 213.78C92.2488 214.38 91.8955 215.367 91.8955 216.74V223H90.9955V212.14H91.8955V214.38ZM97.4277 217.56C97.4277 216.44 97.6477 215.46 98.0877 214.62C98.541 213.78 99.161 213.133 99.9477 212.68C100.748 212.227 101.654 212 102.668 212C103.774 212 104.734 212.28 105.548 212.84C106.361 213.387 106.934 214.1 107.268 214.98V208.2H108.168V223H107.268V220.12C106.948 221.013 106.388 221.747 105.588 222.32C104.788 222.88 103.814 223.16 102.668 223.16C101.654 223.16 100.748 222.933 99.9477 222.48C99.161 222.013 98.541 221.36 98.0877 220.52C97.6477 219.667 97.4277 218.68 97.4277 217.56ZM107.268 217.56C107.268 216.613 107.068 215.78 106.668 215.06C106.281 214.327 105.748 213.767 105.068 213.38C104.388 212.98 103.628 212.78 102.788 212.78C101.908 212.78 101.134 212.973 100.468 213.36C99.801 213.733 99.281 214.28 98.9077 215C98.5343 215.72 98.3477 216.573 98.3477 217.56C98.3477 218.547 98.5343 219.4 98.9077 220.12C99.281 220.84 99.801 221.393 100.468 221.78C101.148 222.167 101.921 222.36 102.788 222.36C103.628 222.36 104.388 222.167 105.068 221.78C105.761 221.38 106.301 220.82 106.688 220.1C107.074 219.367 107.268 218.52 107.268 217.56ZM121.225 216.84C121.225 217.32 121.211 217.68 121.185 217.92H111.805C111.831 218.893 112.045 219.713 112.445 220.38C112.845 221.047 113.371 221.547 114.025 221.88C114.678 222.213 115.391 222.38 116.165 222.38C117.231 222.38 118.125 222.12 118.845 221.6C119.565 221.067 120.018 220.347 120.205 219.44H121.145C120.931 220.547 120.385 221.447 119.505 222.14C118.625 222.82 117.511 223.16 116.165 223.16C115.151 223.16 114.245 222.933 113.445 222.48C112.645 222.027 112.018 221.38 111.565 220.54C111.111 219.687 110.885 218.693 110.885 217.56C110.885 216.427 111.105 215.44 111.545 214.6C111.998 213.76 112.625 213.12 113.425 212.68C114.225 212.227 115.138 212 116.165 212C117.205 212 118.105 212.227 118.865 212.68C119.638 213.12 120.225 213.713 120.625 214.46C121.025 215.193 121.225 215.987 121.225 216.84ZM120.325 217.18C120.365 216.22 120.191 215.407 119.805 214.74C119.431 214.073 118.918 213.58 118.265 213.26C117.611 212.927 116.905 212.76 116.145 212.76C115.385 212.76 114.678 212.927 114.025 213.26C113.385 213.58 112.858 214.073 112.445 214.74C112.045 215.407 111.831 216.22 111.805 217.18H120.325ZM123.385 217.56C123.385 216.44 123.605 215.46 124.045 214.62C124.498 213.78 125.118 213.133 125.905 212.68C126.705 212.227 127.611 212 128.625 212C129.731 212 130.691 212.28 131.505 212.84C132.318 213.387 132.891 214.1 133.225 214.98V208.2H134.125V223H133.225V220.12C132.905 221.013 132.345 221.747 131.545 222.32C130.745 222.88 129.771 223.16 128.625 223.16C127.611 223.16 126.705 222.933 125.905 222.48C125.118 222.013 124.498 221.36 124.045 220.52C123.605 219.667 123.385 218.68 123.385 217.56ZM133.225 217.56C133.225 216.613 133.025 215.78 132.625 215.06C132.238 214.327 131.705 213.767 131.025 213.38C130.345 212.98 129.585 212.78 128.745 212.78C127.865 212.78 127.091 212.973 126.425 213.36C125.758 213.733 125.238 214.28 124.865 215C124.491 215.72 124.305 216.573 124.305 217.56C124.305 218.547 124.491 219.4 124.865 220.12C125.238 220.84 125.758 221.393 126.425 221.78C127.105 222.167 127.878 222.36 128.745 222.36C129.585 222.36 130.345 222.167 131.025 221.78C131.718 221.38 132.258 220.82 132.645 220.1C133.031 219.367 133.225 218.52 133.225 217.56ZM142.406 222.34C144.913 220.607 146.886 218.933 148.326 217.32C149.78 215.707 150.506 214.16 150.506 212.68C150.506 211.707 150.246 210.913 149.726 210.3C149.22 209.687 148.386 209.38 147.226 209.38C146.066 209.38 145.18 209.733 144.566 210.44C143.953 211.147 143.606 212.08 143.526 213.24H142.646C142.74 211.773 143.193 210.633 144.006 209.82C144.82 209.007 145.893 208.6 147.226 208.6C148.44 208.6 149.433 208.94 150.206 209.62C150.993 210.3 151.386 211.313 151.386 212.66C151.386 214.327 150.62 216.007 149.086 217.7C147.566 219.393 145.826 220.887 143.866 222.18H151.846V222.94H142.406V222.34ZM34.0556 230.08L31.0556 247H26.3756L28.0316 237.64L23.1596 247H19.2236L17.6876 237.592L16.0316 247H11.3036L14.3036 230.08H19.9916L22.3196 241.048L28.3916 230.08H34.0556ZM38.7253 232.288C37.9893 232.288 37.4053 232.104 36.9733 231.736C36.5573 231.368 36.3493 230.896 36.3493 230.32C36.3493 229.808 36.4853 229.336 36.7573 228.904C37.0453 228.456 37.4293 228.104 37.9093 227.848C38.4053 227.576 38.9573 227.44 39.5653 227.44C40.3013 227.44 40.8773 227.632 41.2933 228.016C41.7253 228.384 41.9413 228.864 41.9413 229.456C41.9413 229.968 41.7973 230.44 41.5093 230.872C41.2373 231.304 40.8533 231.648 40.3573 231.904C39.8613 232.16 39.3173 232.288 38.7253 232.288ZM40.8373 233.536L38.4613 247H33.7333L36.1333 233.536H40.8373ZM41.5481 240.256C41.8041 238.848 42.3081 237.632 43.0601 236.608C43.8281 235.568 44.7721 234.768 45.8921 234.208C47.0281 233.648 48.2601 233.368 49.5881 233.368C51.3001 233.368 52.6601 233.84 53.6681 234.784C54.6761 235.712 55.2041 237.016 55.2521 238.696H50.2361C50.1081 237.816 49.6201 237.376 48.7721 237.376C48.1801 237.376 47.6681 237.624 47.2361 238.12C46.8041 238.6 46.5081 239.312 46.3481 240.256C46.2841 240.576 46.2521 240.896 46.2521 241.216C46.2521 241.856 46.3881 242.344 46.6601 242.68C46.9321 243 47.3001 243.16 47.7641 243.16C48.6281 243.16 49.2601 242.72 49.6601 241.84H54.6761C54.0521 243.504 53.0681 244.808 51.7241 245.752C50.3961 246.696 48.8681 247.168 47.1401 247.168C45.3801 247.168 43.9801 246.688 42.9401 245.728C41.9161 244.768 41.4041 243.448 41.4041 241.768C41.4041 241.288 41.4521 240.784 41.5481 240.256ZM66.9502 233.416C68.2622 233.416 69.2862 233.792 70.0222 234.544C70.7582 235.296 71.1262 236.344 71.1262 237.688C71.1262 238.152 71.0782 238.64 70.9822 239.152L69.5902 247H64.8862L66.1582 239.776C66.2062 239.536 66.2302 239.32 66.2302 239.128C66.2302 238.552 66.0622 238.104 65.7262 237.784C65.4062 237.464 64.9502 237.304 64.3582 237.304C63.7022 237.304 63.1422 237.504 62.6782 237.904C62.2142 238.304 61.9022 238.856 61.7422 239.56L60.4222 247H55.6942L58.8382 229.24H63.5662L62.4622 235.456C62.9902 234.848 63.6382 234.36 64.4062 233.992C65.1742 233.608 66.0222 233.416 66.9502 233.416ZM80.6433 233.368C82.4033 233.368 83.7953 233.84 84.8193 234.784C85.8593 235.728 86.3793 237.016 86.3793 238.648C86.3793 239.192 86.3393 239.672 86.2593 240.088C86.1633 240.6 86.0673 240.968 85.9713 241.192H77.0673C77.0513 241.288 77.0433 241.432 77.0433 241.624C77.0433 242.232 77.1873 242.68 77.4753 242.968C77.7793 243.256 78.1793 243.4 78.6753 243.4C79.4593 243.4 80.0833 243.048 80.5473 242.344H85.5393C85.1713 243.272 84.6193 244.104 83.8833 244.84C83.1633 245.56 82.3073 246.128 81.3153 246.544C80.3393 246.96 79.2993 247.168 78.1953 247.168C76.4353 247.168 75.0353 246.688 73.9953 245.728C72.9553 244.768 72.4353 243.448 72.4353 241.768C72.4353 241.288 72.4833 240.784 72.5793 240.256C72.8353 238.848 73.3393 237.632 74.0913 236.608C74.8593 235.568 75.8033 234.768 76.9233 234.208C78.0593 233.648 79.2993 233.368 80.6433 233.368ZM81.6273 239.08C81.6593 238.856 81.6753 238.712 81.6753 238.648C81.6753 238.136 81.5153 237.752 81.1953 237.496C80.8753 237.224 80.4593 237.088 79.9473 237.088C79.3553 237.088 78.8433 237.256 78.4113 237.592C77.9793 237.928 77.6593 238.424 77.4513 239.08H81.6273ZM94.8084 229.24L91.6644 247H86.9364L90.0804 229.24H94.8084ZM99.3112 232.288C98.5752 232.288 97.9912 232.104 97.5592 231.736C97.1432 231.368 96.9352 230.896 96.9352 230.32C96.9352 229.808 97.0712 229.336 97.3432 228.904C97.6312 228.456 98.0152 228.104 98.4952 227.848C98.9912 227.576 99.5432 227.44 100.151 227.44C100.887 227.44 101.463 227.632 101.879 228.016C102.311 228.384 102.527 228.864 102.527 229.456C102.527 229.968 102.383 230.44 102.095 230.872C101.823 231.304 101.439 231.648 100.943 231.904C100.447 232.16 99.9032 232.288 99.3112 232.288ZM101.423 233.536L99.0472 247H94.3192L96.7192 233.536H101.423ZM112.934 233.416C114.246 233.416 115.27 233.8 116.006 234.568C116.758 235.32 117.134 236.368 117.134 237.712C117.134 238.16 117.086 238.64 116.99 239.152L115.598 247H110.894L112.166 239.776C112.214 239.536 112.238 239.32 112.238 239.128C112.238 238.552 112.07 238.104 111.734 237.784C111.414 237.464 110.958 237.304 110.366 237.304C109.694 237.304 109.126 237.512 108.662 237.928C108.198 238.344 107.886 238.92 107.726 239.656L106.43 247H101.702L104.102 233.536H108.806L108.47 235.456C108.998 234.848 109.646 234.36 110.414 233.992C111.182 233.608 112.022 233.416 112.934 233.416ZM129.991 247.168C128.039 247.168 126.463 246.768 125.263 245.968C124.079 245.152 123.487 243.968 123.487 242.416C123.487 242.288 123.503 242.064 123.535 241.744H128.503C128.455 242.288 128.567 242.712 128.839 243.016C129.111 243.32 129.527 243.472 130.087 243.472C130.551 243.472 130.919 243.368 131.191 243.16C131.479 242.952 131.623 242.656 131.623 242.272C131.623 241.824 131.415 241.456 130.999 241.168C130.599 240.88 129.943 240.544 129.031 240.16C128.119 239.776 127.367 239.416 126.775 239.08C126.183 238.728 125.671 238.256 125.239 237.664C124.807 237.056 124.591 236.304 124.591 235.408C124.591 234.24 124.879 233.24 125.455 232.408C126.031 231.56 126.831 230.92 127.855 230.488C128.895 230.04 130.079 229.816 131.407 229.816C132.607 229.816 133.671 230.008 134.599 230.392C135.527 230.76 136.247 231.296 136.759 232C137.287 232.704 137.551 233.536 137.551 234.496C137.551 234.752 137.543 234.944 137.527 235.072H132.463C132.479 234.992 132.487 234.88 132.487 234.736C132.487 234.352 132.367 234.056 132.127 233.848C131.887 233.624 131.559 233.512 131.143 233.512C130.711 233.512 130.359 233.624 130.087 233.848C129.831 234.056 129.703 234.352 129.703 234.736C129.703 235.152 129.903 235.512 130.303 235.816C130.719 236.104 131.359 236.448 132.223 236.848C133.151 237.28 133.911 237.688 134.503 238.072C135.111 238.44 135.631 238.936 136.063 239.56C136.495 240.184 136.711 240.952 136.711 241.864C136.711 242.872 136.439 243.784 135.895 244.6C135.351 245.4 134.575 246.032 133.567 246.496C132.559 246.944 131.367 247.168 129.991 247.168ZM144.507 241.96C144.491 242.04 144.483 242.136 144.483 242.248C144.483 242.504 144.555 242.696 144.699 242.824C144.859 242.936 145.115 242.992 145.467 242.992H146.835L146.115 247H144.051C141.123 247 139.659 245.768 139.659 243.304C139.659 242.888 139.707 242.416 139.803 241.888L140.595 237.448H138.939L139.635 233.536H141.291L141.867 230.272H146.595L146.019 233.536H148.443L147.747 237.448H145.323L144.507 241.96ZM148.681 240.256C148.937 238.864 149.409 237.648 150.097 236.608C150.785 235.568 151.609 234.768 152.569 234.208C153.545 233.648 154.569 233.368 155.641 233.368C156.569 233.368 157.337 233.552 157.945 233.92C158.553 234.288 158.977 234.784 159.217 235.408L159.553 233.536H164.257L161.881 247H157.177L157.513 245.128C157.049 245.752 156.441 246.248 155.689 246.616C154.937 246.984 154.105 247.168 153.193 247.168C151.785 247.168 150.657 246.704 149.809 245.776C148.961 244.832 148.537 243.552 148.537 241.936C148.537 241.408 148.585 240.848 148.681 240.256ZM158.377 240.256C158.425 240.016 158.449 239.792 158.449 239.584C158.449 238.912 158.257 238.392 157.873 238.024C157.505 237.656 157.025 237.472 156.433 237.472C155.729 237.472 155.097 237.72 154.537 238.216C153.977 238.696 153.625 239.376 153.481 240.256C153.433 240.496 153.409 240.728 153.409 240.952C153.409 241.624 153.593 242.144 153.961 242.512C154.345 242.88 154.833 243.064 155.425 243.064C156.129 243.064 156.761 242.816 157.321 242.32C157.881 241.824 158.233 241.136 158.377 240.256ZM171.233 235.984C171.889 235.2 172.633 234.576 173.465 234.112C174.297 233.648 175.145 233.416 176.009 233.416L175.145 238.432H173.825C172.833 238.432 172.057 238.616 171.497 238.984C170.937 239.352 170.561 239.992 170.369 240.904L169.289 247H164.561L166.961 233.536H171.665L171.233 235.984ZM181.176 247.168C180.056 247.168 179.056 247 178.176 246.664C177.296 246.328 176.608 245.856 176.112 245.248C175.616 244.624 175.368 243.912 175.368 243.112C175.368 242.968 175.384 242.752 175.416 242.464H179.952C179.936 242.912 180.072 243.256 180.36 243.496C180.648 243.736 181.048 243.856 181.56 243.856C181.96 243.856 182.288 243.776 182.544 243.616C182.816 243.456 182.952 243.248 182.952 242.992C182.952 242.688 182.784 242.456 182.448 242.296C182.112 242.12 181.552 241.904 180.768 241.648C179.856 241.36 179.104 241.08 178.512 240.808C177.92 240.536 177.4 240.136 176.952 239.608C176.52 239.08 176.304 238.4 176.304 237.568C176.304 236.768 176.536 236.048 177 235.408C177.48 234.768 178.152 234.272 179.016 233.92C179.88 233.552 180.88 233.368 182.016 233.368C183.232 233.368 184.28 233.576 185.16 233.992C186.056 234.392 186.72 234.952 187.152 235.672C187.6 236.392 187.8 237.192 187.752 238.072H183.528C183.544 237.64 183.416 237.304 183.144 237.064C182.872 236.808 182.48 236.68 181.968 236.68C181.6 236.68 181.296 236.76 181.056 236.92C180.816 237.08 180.696 237.288 180.696 237.544C180.696 237.848 180.864 238.088 181.2 238.264C181.552 238.44 182.136 238.664 182.952 238.936C183.848 239.224 184.592 239.512 185.184 239.8C185.792 240.072 186.312 240.464 186.744 240.976C187.176 241.472 187.392 242.112 187.392 242.896C187.392 244.224 186.816 245.272 185.664 246.04C184.512 246.792 183.016 247.168 181.176 247.168Z" fill="black"/>
<defs>
<clipPath id="clip0_69_2">
<rect width="200" height="200" fill="white"/>
</clipPath>
</defs>
</svg>
